<svg xmlns="http://www.w3.org/2000/svg" viewBox="0 0 760 420"><path d="M344.1,250.6 L344.4,250.7 L344.8,251.2 L345.6,253.0 L346.6,257.3 L346.7,258.2 L350.2,263.6 L350.5,270.9 L348.9,275.0 L348.3,276.2 L347.9,277.2 L347.8,278.4 L347.7,281.6 L349.3,287.4 L350.0,288.6 L351.2,289.3 L351.4,289.5 L352.8,290.5 L353.1,291.3 L353.1,291.4 L353.1,291.5 L353.0,291.6 L352.8,291.7 L347.4,296.1 L345.0,298.2 L341.6,302.7 L339.4,307.4 L337.6,310.8 L337.4,311.0 L335.8,311.4 L335.8,311.5 L335.8,311.7 L336.1,312.4 L336.1,312.6 L336.4,313.1 L336.5,313.4 L336.5,313.5 L336.5,313.6 L336.5,313.7 L336.1,315.3 L335.3,318.1 L335.3,318.2 L333.8,320.8 L333.6,323.2 L333.3,326.5 L332.0,329.3 L331.1,329.4 L329.9,330.1 L328.9,331.7 L326.6,335.5 L326.9,338.0 L325.2,338.7 L321.6,340.3 L310.7,345.2 L307.2,346.7 L304.7,349.3 L301.8,357.8 L301.1,364.5 L301.1,364.5 L300.1,369.5 L299.4,372.5 L298.9,374.5 L297.6,379.4 L297.1,381.4 L296.3,385.0 L295.5,382.8 L294.5,382.3 L293.4,381.8 L292.3,381.3 L291.2,380.8 L290.4,380.1 L289.9,379.6 L289.4,378.2 L289.0,377.3 L288.7,376.3 L288.4,375.4 L288.0,374.4 L287.4,372.6 L285.9,368.4 L285.7,368.0 L284.8,366.2 L283.0,362.3 L282.5,361.3 L282.0,360.3 L278.5,353.3 L278.5,352.7 L278.5,352.1 L278.6,351.5 L278.9,350.8 L280.2,347.0 L280.3,346.8 L280.4,346.4 L280.7,345.7 L281.0,345.0 L281.5,344.4 L282.7,342.9 L283.2,342.3 L283.9,341.6 L284.1,341.4 L285.5,340.0 L285.9,339.7 L286.5,339.3 L287.0,339.1 L287.8,338.5 L288.3,338.0 L288.9,337.3 L289.4,336.5 L290.0,335.5 L290.2,334.7 L290.4,333.7 L290.4,332.7 L290.3,331.5 L290.1,330.9 L290.0,330.5 L289.6,330.0 L288.8,329.0 L286.8,328.7 L285.6,329.0 L284.4,329.2 L283.2,329.5 L281.5,329.9 L280.3,329.9 L276.7,329.8 L272.6,328.4 L271.7,327.7 L270.0,326.4 L270.0,325.1 L270.0,323.9 L270.1,323.4 L272.9,313.3 L273.2,312.3 L273.7,310.3 L274.1,309.0 L274.4,307.7 L274.1,305.2 L273.8,305.1 L273.5,305.0 L273.6,303.1 L272.2,302.1 L270.6,301.9 L268.1,301.2 L267.1,296.6 L267.1,295.7 L267.2,294.0 L267.4,291.5 L267.0,291.0 L264.8,290.9 L263.3,291.4 L262.2,291.3 L260.0,290.9 L259.2,289.3 L259.0,289.0 L254.3,286.6 L252.5,286.4 L251.3,284.9 L250.7,282.6 L250.0,281.6 L248.9,280.4 L248.1,280.2 L247.0,280.6 L244.8,280.6 L244.3,277.6 L244.3,275.8 L244.3,275.8 L244.2,275.3 L243.6,273.6 L242.5,271.8 L241.7,269.6 L241.4,268.0 L243.5,267.6 L246.1,266.0 L246.7,265.2 L247.2,263.8 L247.3,262.9 L247.8,259.9 L247.7,259.2 L247.2,259.0 L246.6,255.9 L246.6,255.8 L247.0,255.8 L248.7,256.3 L249.7,253.9 L249.7,253.3 L249.3,248.2 L249.0,246.7 L249.0,245.6 L247.4,243.3 L247.5,241.8 L248.0,241.4 L248.0,241.3 L247.1,239.1 L246.3,237.0 L242.8,236.8 L242.6,235.9 L242.4,235.2 L242.4,234.3 L242.7,230.1 L244.3,229.4 L245.4,230.4 L246.0,230.5 L247.2,230.4 L248.2,229.7 L249.2,229.1 L249.9,228.8 L250.9,228.7 L252.3,229.1 L254.8,230.8 L256.4,232.0 L258.8,233.7 L261.4,234.7 L261.6,234.7 L261.8,234.7 L266.9,232.8 L267.6,232.0 L269.2,230.9 L270.3,230.2 L272.9,231.2 L273.8,231.7 L274.0,232.8 L274.5,233.2 L274.9,233.1 L275.2,232.5 L275.2,232.3 L275.2,231.6 L275.5,230.0 L274.0,225.7 L273.0,224.2 L271.7,222.6 L270.9,222.6 L270.1,220.3 L270.1,219.8 L270.4,218.9 L271.2,217.0 L271.5,216.4 L271.7,216.1 L271.9,215.6 L271.7,215.3 L270.3,214.7 L266.7,214.1 L266.3,214.0 L265.4,214.6 L263.8,216.0 L260.8,215.5 L259.6,214.8 L259.6,213.1 L260.1,206.3 L260.2,205.5 L260.3,205.0 L260.8,203.4 L261.0,202.8 L262.6,198.7 L264.4,197.4 L265.0,195.7 L265.5,194.4 L265.9,194.5 L268.4,194.3 L272.6,192.5 L275.9,193.2 L277.2,194.0 L277.8,194.1 L280.2,192.6 L281.3,191.7 L281.1,191.4 L284.4,189.2 L287.3,187.5 L287.9,187.5 L286.5,184.7 L285.8,182.0 L285.8,181.7 L286.0,178.5 L286.0,177.5 L286.1,175.2 L286.1,172.9 L286.1,172.4 L286.1,171.0 L286.0,168.8 L285.9,167.6 L285.7,162.9 L284.8,160.2 L284.7,160.0 L284.0,158.3 L283.8,158.1 L283.1,157.1 L282.0,152.5 L282.0,150.1 L280.6,147.9 L279.9,147.6 L278.7,147.0 L274.7,144.2 L274.6,144.1 L274.0,143.7 L273.9,143.6 L273.6,143.3 L273.3,142.9 L273.2,142.9 L273.0,142.6 L272.7,142.3 L272.4,141.6 L272.2,141.2 L272.2,141.0 L272.2,140.9 L272.2,140.3 L272.2,139.3 L272.5,138.3 L273.7,135.8 L273.9,135.0 L273.7,130.1 L273.4,128.9 L272.8,126.3 L272.7,126.2 L273.9,125.8 L274.0,125.8 L274.7,125.8 L275.3,125.8 L275.7,125.8 L276.9,125.8 L277.6,125.8 L280.6,124.2 L282.1,123.2 L285.4,122.5 L285.8,122.5 L286.1,122.6 L288.5,123.5 L289.3,122.8 L291.6,120.7 L292.1,120.2 L292.9,120.4 L294.8,117.8 L296.0,117.0 L296.6,117.2 L297.6,117.3 L298.8,117.3 L299.0,117.3 L299.9,117.0 L304.1,114.8 L306.2,113.5 L308.0,112.3 L308.5,111.9 L308.8,111.2 L309.1,109.4 L311.4,107.1 L312.7,106.8 L314.7,106.2 L316.5,104.8 L315.7,103.5 L316.0,102.9 L318.4,100.3 L319.3,99.9 L321.1,99.9 L322.0,100.0 L324.3,100.4 L325.0,100.1 L325.7,99.5 L328.0,97.4 L328.9,95.8 L329.8,94.3 L330.4,95.0 L330.8,95.7 L331.9,96.1 L335.2,94.8 L341.5,94.5 L344.9,94.4 L345.3,94.3 L347.9,90.9 L352.2,87.1 L354.3,84.9 L355.7,83.6 L357.1,83.3 L358.2,83.0 L359.9,83.6 L361.0,84.3 L361.8,82.2 L363.9,80.1 L365.4,80.1 L366.4,79.2 L366.7,77.6 L366.5,76.7 L370.1,71.1 L371.2,69.3 L372.7,68.4 L373.7,68.1 L375.0,68.9 L377.9,68.8 L379.0,67.6 L380.3,67.3 L381.9,66.8 L382.5,66.8 L383.8,66.8 L385.7,63.8 L385.8,61.4 L388.0,58.9 L388.5,58.9 L389.3,58.9 L389.4,58.9 L389.5,59.0 L390.4,59.9 L391.2,60.7 L392.6,61.6 L392.8,61.6 L392.8,61.6 L393.3,61.3 L393.5,61.1 L393.7,61.0 L393.7,60.9 L393.7,60.9 L393.8,60.8 L393.8,60.6 L393.8,60.5 L393.8,60.5 L393.9,60.4 L394.1,60.2 L394.3,60.0 L394.7,59.8 L395.1,59.5 L396.3,58.9 L402.3,57.6 L402.6,57.6 L402.8,57.6 L403.0,57.6 L403.1,57.6 L403.3,57.6 L403.5,57.7 L403.7,57.7 L404.0,57.8 L404.3,57.9 L406.0,58.6 L406.0,58.7 L406.1,58.7 L406.2,58.8 L408.6,61.0 L408.7,61.1 L408.7,61.1 L408.7,61.2 L408.7,61.4 L408.8,61.5 L408.8,61.7 L408.8,61.8 L408.8,62.1 L408.8,62.2 L408.8,62.4 L408.8,62.5 L408.8,62.5 L408.8,62.6 L409.2,63.6 L409.3,63.7 L409.4,63.8 L409.6,64.0 L409.6,64.1 L414.2,65.6 L414.3,65.6 L416.6,64.8 L416.7,64.8 L420.0,62.3 L420.2,62.1 L420.4,62.0 L420.5,61.9 L420.6,61.8 L420.8,61.6 L421.3,60.7 L421.4,60.6 L421.4,60.5 L421.4,60.4 L421.4,60.3 L421.4,60.1 L421.4,59.9 L421.4,59.8 L421.4,59.7 L421.4,59.6 L424.0,54.9 L426.0,51.5 L426.5,48.8 L426.5,48.7 L426.4,48.6 L426.3,48.5 L426.3,48.3 L426.0,46.5 L426.0,46.4 L426.0,46.3 L426.0,46.2 L426.0,46.1 L426.1,42.8 L426.1,42.7 L426.3,41.9 L426.3,41.7 L426.4,41.6 L426.9,39.9 L427.4,38.8 L427.5,38.6 L428.3,36.9 L428.7,35.9 L428.8,35.0 L429.2,35.2 L429.6,35.3 L429.8,35.6 L432.3,39.0 L433.3,40.3 L433.6,41.0 L434.0,41.8 L434.1,42.0 L434.3,42.2 L434.5,42.6 L434.7,42.8 L434.8,42.9 L435.1,43.2 L437.4,44.6 L439.6,45.9 L439.9,46.1 L440.2,46.5 L440.6,46.7 L441.4,46.6 L441.7,46.5 L442.0,46.4 L442.4,46.3 L442.9,45.9 L443.4,45.5 L443.7,45.4 L443.9,45.2 L444.5,45.0 L446.8,44.6 L447.1,44.7 L447.6,45.1 L448.4,46.0 L448.5,46.5 L448.6,47.2 L448.7,48.2 L449.0,49.2 L449.2,49.9 L449.5,50.3 L450.4,51.6 L450.6,52.0 L452.1,53.5 L452.5,53.9 L455.2,55.3 L456.0,55.7 L456.8,55.9 L457.5,55.8 L458.1,55.7 L458.3,55.6 L458.6,55.5 L458.9,55.6 L460.2,56.1 L460.7,56.4 L460.8,56.6 L461.0,56.8 L461.4,57.4 L461.4,57.5 L461.3,58.3 L461.2,60.2 L461.0,62.8 L461.1,63.2 L462.0,64.8 L462.1,64.9 L462.2,65.0 L463.5,66.2 L463.7,66.3 L463.8,66.4 L464.3,66.1 L464.7,65.8 L464.9,65.8 L465.1,65.8 L465.9,66.5 L466.3,66.8 L467.2,67.7 L467.5,68.2 L470.6,72.0 L470.6,72.1 L470.7,72.6 L470.5,73.5 L470.4,74.9 L470.2,77.0 L470.4,77.5 L471.1,78.0 L472.6,78.8 L473.6,79.3 L475.0,80.2 L476.6,81.6 L478.2,83.2 L478.8,84.9 L481.8,85.6 L483.6,85.5 L483.1,85.7 L482.0,87.8 L481.7,89.8 L481.3,91.7 L479.6,94.6 L478.0,96.0 L477.0,96.8 L475.7,97.9 L475.0,98.4 L474.4,98.8 L473.4,98.9 L472.6,99.3 L471.6,99.8 L469.9,101.1 L468.9,104.3 L469.3,105.7 L469.5,106.1 L470.3,107.5 L471.0,108.6 L469.9,108.8 L468.8,109.0 L468.9,109.7 L469.1,112.3 L468.1,113.2 L466.5,115.6 L466.9,116.5 L469.1,119.5 L469.9,119.7 L470.2,119.8 L471.1,118.9 L471.5,118.7 L471.9,118.5 L475.7,118.1 L479.0,119.0 L479.7,120.9 L479.9,123.8 L480.0,125.1 L481.9,126.4 L483.1,126.8 L484.4,127.4 L485.6,128.5 L487.7,131.5 L488.1,131.8 L488.2,131.8 L489.9,131.8 L492.0,131.7 L491.9,133.0 L491.8,133.4 L492.3,135.7 L493.7,138.2 L494.1,139.5 L494.1,140.9 L494.0,142.3 L494.8,143.4 L497.4,144.1 L500.7,145.7 L501.3,146.7 L501.3,147.9 L501.4,149.0 L501.9,150.9 L502.4,151.3 L502.9,151.7 L506.0,153.4 L507.8,154.6 L509.6,155.9 L513.3,159.5 L513.6,159.9 L515.9,164.0 L516.9,166.4 L518.0,169.0 L518.6,169.6 L518.1,169.9 L517.8,170.6 L518.4,173.4 L518.4,176.3 L517.9,181.1 L514.8,182.9 L514.2,183.2 L513.8,183.4 L513.7,183.4 L513.2,183.6 L511.2,184.1 L509.8,184.3 L506.1,184.6 L503.4,186.3 L502.6,187.2 L502.0,188.0 L501.0,188.5 L498.9,189.5 L497.8,189.5 L495.4,186.8 L494.8,185.9 L494.9,184.3 L494.2,183.3 L493.2,182.8 L492.9,182.7 L491.7,182.2 L490.6,181.9 L489.4,178.9 L490.9,177.5 L490.9,176.2 L490.9,175.0 L490.7,174.6 L490.6,174.5 L490.5,174.3 L489.6,173.7 L485.6,172.4 L483.4,171.6 L482.5,172.3 L482.0,173.1 L478.8,172.2 L476.2,171.2 L472.5,171.6 L470.8,172.0 L470.0,172.7 L468.6,175.7 L468.6,176.6 L468.3,176.9 L466.9,178.2 L466.1,178.7 L464.5,179.1 L463.3,179.2 L463.2,179.2 L462.1,180.3 L461.3,181.4 L461.2,182.8 L461.2,182.9 L460.3,183.8 L457.1,185.7 L456.3,185.9 L454.2,186.3 L454.0,186.3 L453.2,186.1 L451.9,185.7 L451.4,185.3 L450.9,184.9 L450.4,184.4 L448.7,183.0 L447.9,182.7 L447.8,182.7 L447.3,182.6 L446.6,182.6 L445.1,182.6 L445.0,182.7 L444.3,182.8 L443.9,182.8 L443.4,182.8 L442.9,182.8 L442.1,182.3 L441.1,179.6 L441.3,178.7 L441.3,178.6 L439.8,178.0 L438.1,177.5 L437.6,177.4 L436.5,177.2 L435.2,176.8 L433.2,176.3 L429.9,174.0 L429.5,173.6 L429.3,173.0 L429.2,172.7 L429.1,172.4 L429.1,171.7 L428.9,171.4 L428.3,171.2 L425.5,171.0 L424.9,171.0 L424.8,171.1 L424.4,171.5 L424.2,172.2 L423.9,172.5 L420.6,173.8 L419.7,173.6 L419.2,173.5 L418.7,173.1 L417.9,170.4 L418.0,169.9 L417.9,169.2 L417.7,168.8 L416.8,168.8 L414.0,168.1 L413.5,167.8 L412.8,167.0 L411.0,168.0 L410.5,168.4 L409.0,170.5 L408.8,171.2 L408.5,172.0 L406.6,173.4 L406.0,173.7 L405.1,173.7 L404.2,173.9 L403.7,174.1 L403.2,174.7 L402.0,176.4 L399.6,181.1 L399.6,181.7 L399.5,182.3 L399.5,182.7 L400.0,183.6 L400.3,184.2 L401.0,185.1 L401.0,185.2 L399.4,188.3 L395.1,191.9 L392.5,193.8 L392.5,193.9 L392.1,194.5 L392.3,195.8 L392.2,196.4 L391.8,196.9 L391.0,197.1 L390.2,197.2 L389.0,197.4 L388.4,197.9 L388.0,198.5 L386.8,200.1 L386.6,201.2 L386.1,201.9 L385.8,202.3 L385.5,202.5 L384.9,203.2 L384.3,204.1 L383.0,206.1 L383.0,208.1 L383.0,209.0 L383.0,209.7 L384.3,212.3 L385.1,213.5 L385.6,214.2 L386.0,214.7 L386.6,215.4 L387.1,216.0 L387.3,216.6 L387.5,217.6 L387.0,218.1 L385.3,220.4 L384.8,222.1 L384.8,223.1 L384.8,223.6 L383.9,225.6 L383.6,226.1 L382.8,226.4 L381.4,226.9 L380.6,227.3 L380.2,227.9 L376.0,229.9 L375.7,229.9 L373.4,229.4 L372.2,229.6 L367.5,232.9 L365.5,234.7 L364.2,234.7 L363.9,234.4 L363.6,234.2 L362.8,234.2 L361.9,234.4 L361.1,234.6 L357.0,236.1 L356.5,236.6 L356.3,237.3 L356.4,238.0 L356.6,239.5 L355.9,240.5 L354.8,240.9 L353.9,240.7 L351.7,241.5 L349.5,242.4 L349.2,242.6 L348.3,243.0 L347.4,243.9 L347.1,245.1 L345.0,247.4 L343.5,248.5 L343.7,249.8 L344.1,250.6Z" fill="#e7f2eb" fill-rule="evenodd" stroke="#368058" stroke-width="2" stroke-linejoin="round"/></svg>
