<svg xmlns="http://www.w3.org/2000/svg" width="128" height="128" viewBox="0 0 128 128" role="img" aria-label="부산 영도구 · 영도대교"><title>부산 영도구 · 영도대교</title><circle cx="64" cy="64" r="60" fill="#DDEEEA" stroke="#ADC3B3" stroke-width="2.5" /><g transform="translate(14 14)"><g id="motif" fill="none" stroke="#153B2B" stroke-width="4.5" stroke-linecap="round" stroke-linejoin="round">
    <path d="M21 62h14v17H21Zm56 0h12v17H77Z" fill="#9BBFB2" />
    <path d="M10 55h25v10H10Zm61 0h19v10H71Z" fill="#DB9D83" />
    <path d="m31 58 29-44 11 7-30 44Z" fill="#DB9D83" />
    <path d="m42 50 20-30" stroke="#FFF1CE" />
    <path d="M11 46h18m44 0h16M14 47v8m11-8v8m52-8v8m9-8v8" />
    <path d="M10 81q10-7 20 0t20 0t20 0t20 0" stroke="#79B9C7" stroke-width="5" />
    <path d="M18 89q8-5 16 0m32 0q8-5 16 0" stroke="#79B9C7" stroke-width="4.5" />
  </g>
</g></svg>