<svg xmlns="http://www.w3.org/2000/svg" width="128" height="128" viewBox="0 0 128 128" role="img" aria-label="대전 중구 · 오월드 늑구"><title>대전 중구 · 오월드 늑구</title><circle cx="64" cy="64" r="60" fill="#E8EFE4" stroke="#ADC3B3" stroke-width="2.5" /><g transform="translate(14 14)"><g id="motif" stroke-linecap="round" stroke-linejoin="round"><g transform="translate(3 3) scale(.94)"><path d="M23 41 18 13q15 1 22 16 10-5 20 0 7-15 22-16l-5 28 9 9-7 3 9 9-11 2Q72 82 50 90 28 82 23 64L12 62l9-9-7-3Z" fill="#AEB7AF" stroke="#153B2B" stroke-width="4.5" /><path d="M27 24 30 39l8-8Zm46 0-3 15-8-8Z" fill="#F4EDDD" stroke="none" stroke-width="4.5" /><path d="M42 30 50 40l8-10Z" fill="#748B80" stroke="none" stroke-width="4.5" /><path d="M25 48q4-7 13 1l12 8 12-8q9-8 13-1l-1 16Q69 79 50 84 31 79 26 64Z" fill="#F4EDDD" stroke="none" stroke-width="4.5" /><ellipse cx="35" cy="51" rx="2.7" ry="2.7" fill="#153B2B" stroke="none" stroke-width="4.5" /><ellipse cx="65" cy="51" rx="2.7" ry="2.7" fill="#153B2B" stroke="none" stroke-width="4.5" /><path d="M29 42l10 3m22 0 10-3" fill="none" stroke="#153B2B" stroke-width="3" /><path d="M44 62q6-4 12 0 0 5-6 7-6-2-6-7Z" fill="#153B2B" stroke="none" stroke-width="4.5" /><path d="M50 68v6m-8-2q3 7 8 2 5 5 8-2" fill="none" stroke="#153B2B" stroke-width="2.8" /></g></g></g></svg>